<svg xmlns="http://www.w3.org/2000/svg" xmlns:xlink="http://www.w3.org/1999/xlink" width="3240" zoomAndPan="magnify" viewBox="0 0 810 809.99997" height="1350" preserveAspectRatio="xMidYMid meet" version="1.0"><defs><clipPath id="dd42c978f6"><path d="M 660.53125 239 L 810 239 L 810 412 L 660.53125 412 Z M 660.53125 239 " clip-rule="nonzero"/></clipPath></defs><path fill="#f4eada" d="M 761.519531 687.519531 C 761.519531 686.554688 760.742188 685.777344 759.78125 685.777344 L 745.871094 685.777344 C 744.910156 685.777344 744.132812 686.554688 744.132812 687.519531 C 744.132812 688.480469 744.910156 689.257812 745.871094 689.257812 L 759.78125 689.257812 C 760.742188 689.257812 761.519531 688.480469 761.519531 687.519531 Z M 761.519531 687.519531 " fill-opacity="1" fill-rule="nonzero"/><path fill="#f4eada" d="M 731.957031 685.777344 L 718.046875 685.777344 C 717.085938 685.777344 716.308594 686.554688 716.308594 687.519531 C 716.308594 688.480469 717.085938 689.257812 718.046875 689.257812 L 731.957031 689.257812 C 732.917969 689.257812 733.699219 688.480469 733.699219 687.519531 C 733.699219 686.554688 732.917969 685.777344 731.957031 685.777344 Z M 731.957031 685.777344 " fill-opacity="1" fill-rule="nonzero"/><path fill="#f4eada" d="M 703.203125 796.140625 C 703.203125 795.179688 702.425781 794.402344 701.464844 794.402344 C 700.503906 794.402344 699.726562 795.179688 699.726562 796.140625 L 699.726562 810.050781 C 699.726562 811.011719 700.503906 811.792969 701.464844 811.792969 C 702.425781 811.792969 703.203125 811.011719 703.203125 810.050781 Z M 703.203125 796.140625 " fill-opacity="1" fill-rule="nonzero"/><path fill="#f4eada" d="M 771.953125 687.519531 C 771.953125 688.480469 772.730469 689.257812 773.695312 689.257812 L 787.605469 689.257812 C 788.566406 689.257812 789.34375 688.480469 789.34375 687.519531 C 789.34375 686.554688 788.566406 685.777344 787.605469 685.777344 L 773.695312 685.777344 C 772.730469 685.777344 771.953125 686.554688 771.953125 687.519531 Z M 771.953125 687.519531 " fill-opacity="1" fill-rule="nonzero"/><path fill="#f4eada" d="M 703.203125 768.316406 C 703.203125 767.355469 702.425781 766.578125 701.464844 766.578125 C 700.503906 766.578125 699.726562 767.355469 699.726562 768.316406 L 699.726562 782.230469 C 699.726562 783.191406 700.503906 783.96875 701.464844 783.96875 C 702.425781 783.96875 703.203125 783.191406 703.203125 782.230469 Z M 703.203125 768.316406 " fill-opacity="1" fill-rule="nonzero"/><path fill="#f4eada" d="M 815.429688 689.257812 C 816.390625 689.257812 817.167969 688.480469 817.167969 687.519531 C 817.167969 686.554688 816.390625 685.777344 815.429688 685.777344 L 801.515625 685.777344 C 800.554688 685.777344 799.777344 686.554688 799.777344 687.519531 C 799.777344 688.480469 800.554688 689.257812 801.515625 689.257812 Z M 815.429688 689.257812 " fill-opacity="1" fill-rule="nonzero"/><path fill="#f4eada" d="M 703.203125 740.496094 C 703.203125 739.535156 702.425781 738.753906 701.464844 738.753906 C 700.503906 738.753906 699.726562 739.535156 699.726562 740.496094 L 699.726562 754.40625 C 699.726562 755.367188 700.503906 756.144531 701.464844 756.144531 C 702.425781 756.144531 703.203125 755.367188 703.203125 754.40625 Z M 703.203125 740.496094 " fill-opacity="1" fill-rule="nonzero"/><path fill="#f4eada" d="M 703.203125 712.671875 C 703.203125 711.710938 702.425781 710.933594 701.464844 710.933594 C 700.503906 710.933594 699.726562 711.710938 699.726562 712.671875 L 699.726562 726.582031 C 699.726562 727.542969 700.503906 728.320312 701.464844 728.320312 C 702.425781 728.320312 703.203125 727.542969 703.203125 726.582031 Z M 703.203125 712.671875 " fill-opacity="1" fill-rule="nonzero"/><path fill="#f4eada" d="M 687.800781 679.375 L 687.800781 695.664062 C 687.800781 697.539062 689.328125 699.066406 691.207031 699.066406 L 699.855469 699.066406 C 700.015625 699.859375 700.625 700.5 701.464844 700.5 C 702.308594 700.5 702.917969 699.859375 703.078125 699.066406 L 711.722656 699.066406 C 713.601562 699.066406 715.125 697.539062 715.125 695.664062 L 715.125 679.375 C 715.125 677.5 713.601562 675.972656 711.722656 675.972656 L 691.207031 675.972656 C 689.328125 675.972656 687.800781 677.5 687.800781 679.375 Z M 687.800781 679.375 " fill-opacity="1" fill-rule="nonzero"/><path fill="#f4eada" d="M 908.964844 822.855469 L 857.460938 733.601562 C 856.871094 732.574219 855.023438 732.617188 854.449219 733.601562 L 802.980469 822.855469 C 802.464844 823.761719 802.847656 824.898438 803.773438 825.3125 C 812.878906 829.410156 836.425781 842.632812 836.074219 854.527344 L 836.074219 877.621094 C 836.074219 878.582031 836.851562 879.359375 837.8125 879.359375 L 874.167969 879.359375 C 875.128906 879.359375 875.90625 878.582031 875.90625 877.621094 L 875.90625 854.472656 C 875.53125 842.640625 899.070312 829.410156 908.171875 825.3125 C 909.117188 824.882812 909.480469 823.738281 908.964844 822.855469 Z M 862.1875 813.46875 L 862.1875 823.5625 L 849.757812 823.5625 L 849.757812 813.46875 C 850.460938 813.46875 862.890625 813.46875 862.1875 813.46875 Z M 839.558594 875.882812 L 839.558594 858.199219 L 872.417969 858.199219 L 872.417969 875.882812 Z M 872.429688 854.527344 L 872.429688 854.722656 L 839.550781 854.722656 L 839.550781 854.578125 C 839.984375 839.972656 814.050781 826.402344 806.941406 822.957031 L 854.238281 740.929688 L 854.238281 809.992188 L 848.019531 809.992188 C 847.058594 809.992188 846.28125 810.769531 846.28125 811.730469 L 846.28125 825.300781 C 846.28125 826.261719 847.058594 827.039062 848.019531 827.039062 L 863.929688 827.039062 C 864.890625 827.039062 865.667969 826.261719 865.667969 825.300781 L 865.667969 811.730469 C 865.667969 810.769531 864.890625 809.992188 863.929688 809.992188 L 857.714844 809.992188 L 857.714844 741 L 905.007812 822.957031 C 897.894531 826.398438 871.964844 839.96875 872.429688 854.527344 Z M 872.429688 854.527344 " fill-opacity="1" fill-rule="nonzero"/><path fill="#f4eada" d="M 926.824219 775.859375 L 926.824219 787.613281 C 926.824219 788.574219 927.601562 789.351562 928.5625 789.351562 L 940.316406 789.351562 C 941.277344 789.351562 942.054688 788.574219 942.054688 787.613281 L 942.054688 775.859375 C 942.054688 774.894531 941.277344 774.117188 940.316406 774.117188 L 935.730469 774.117188 C 932.101562 748.675781 910.800781 728.003906 881.917969 720.144531 L 926.820312 720.144531 L 926.820312 723.777344 C 926.820312 724.738281 927.597656 725.515625 928.558594 725.515625 L 940.316406 725.515625 C 941.277344 725.515625 942.054688 724.738281 942.054688 723.777344 L 942.054688 711.992188 C 942.054688 711.03125 941.277344 710.253906 940.316406 710.253906 L 928.558594 710.253906 C 927.597656 710.253906 926.820312 711.03125 926.820312 711.992188 L 926.820312 716.664062 L 863.59375 716.664062 L 863.59375 712.003906 C 863.59375 711.042969 862.8125 710.261719 861.851562 710.261719 L 850.097656 710.261719 C 849.136719 710.261719 848.359375 711.042969 848.359375 712.003906 L 848.359375 716.664062 L 781.601562 716.664062 L 781.601562 711.992188 C 781.601562 711.03125 780.824219 710.253906 779.859375 710.253906 L 768.101562 710.253906 C 767.140625 710.253906 766.363281 711.03125 766.363281 711.992188 L 766.363281 723.777344 C 766.363281 724.738281 767.140625 725.515625 768.101562 725.515625 L 779.859375 725.515625 C 780.824219 725.515625 781.601562 724.738281 781.601562 723.777344 L 781.601562 720.144531 L 830.183594 720.144531 C 801.273438 728.011719 779.914062 748.695312 776.226562 774.113281 L 771.46875 774.113281 C 770.507812 774.113281 769.730469 774.894531 769.730469 775.855469 L 769.730469 787.644531 C 769.730469 788.605469 770.507812 789.382812 771.46875 789.382812 L 783.226562 789.382812 C 784.1875 789.382812 784.964844 788.605469 784.964844 787.644531 L 784.964844 775.855469 C 784.964844 774.894531 784.1875 774.113281 783.226562 774.113281 L 779.753906 774.113281 C 784.1875 745.53125 812.511719 723.367188 848.359375 720.523438 L 848.359375 723.757812 C 848.359375 724.71875 849.136719 725.496094 850.097656 725.496094 L 861.851562 725.496094 C 862.8125 725.496094 863.59375 724.71875 863.59375 723.757812 L 863.59375 720.519531 C 899.503906 723.296875 927.832031 745.464844 932.207031 774.117188 L 928.5625 774.117188 C 927.601562 774.117188 926.824219 774.894531 926.824219 775.859375 Z M 930.296875 713.730469 L 938.578125 713.730469 L 938.578125 722.039062 L 930.296875 722.039062 Z M 769.84375 722.039062 L 769.84375 713.730469 L 778.121094 713.730469 C 778.121094 714.523438 778.121094 722.753906 778.121094 722.039062 Z M 781.488281 785.902344 L 773.207031 785.902344 L 773.207031 777.59375 C 773.90625 777.59375 782.1875 777.59375 781.488281 777.59375 Z M 860.113281 722.019531 L 851.835938 722.019531 C 851.835938 721.316406 851.835938 713.039062 851.835938 713.742188 L 860.113281 713.742188 Z M 930.300781 777.597656 L 938.578125 777.597656 L 938.578125 785.875 L 930.300781 785.875 Z M 930.300781 777.597656 " fill-opacity="1" fill-rule="nonzero"/><g clip-path="url(#dd42c978f6)"><path fill="#f4eada" d="M 662.609375 411.847656 L 906.835938 411.847656 C 907.796875 411.847656 908.574219 411.070312 908.574219 410.109375 C 908.574219 307.503906 908.574219 299.808594 908.574219 241.671875 C 908.574219 240.710938 907.796875 239.933594 906.835938 239.933594 C 757.132812 239.933594 748.285156 239.933594 662.609375 239.933594 C 661.648438 239.933594 660.867188 240.710938 660.867188 241.671875 C 660.867188 299.785156 660.867188 307.511719 660.867188 410.109375 C 660.867188 411.070312 661.648438 411.847656 662.609375 411.847656 Z M 664.347656 408.371094 L 664.347656 275.214844 C 719.878906 275.214844 821.429688 275.214844 905.097656 275.214844 L 905.097656 408.371094 Z M 685.542969 252.507812 C 688.253906 252.507812 690.609375 254.746094 690.609375 257.574219 C 690.609375 260.285156 688.253906 262.636719 685.542969 262.636719 C 682.714844 262.636719 680.480469 260.285156 680.480469 257.574219 C 680.480469 254.746094 682.714844 252.507812 685.542969 252.507812 Z M 905.097656 271.738281 L 710.214844 271.738281 L 710.214844 243.410156 L 905.097656 243.410156 Z M 905.097656 271.738281 " fill-opacity="1" fill-rule="nonzero"/></g><path fill="#f4eada" d="M 863.171875 330.699219 C 848.308594 324.445312 840.425781 353.328125 824.007812 355.175781 C 805.097656 357.34375 795.957031 343.296875 791.613281 331.144531 C 782.589844 306.023438 760.578125 298.261719 744.445312 299.265625 C 713.835938 301.15625 695.988281 330.761719 694.183594 382.632812 C 694.148438 383.601562 694.925781 384.433594 695.921875 384.433594 L 873.40625 384.433594 C 874.351562 384.433594 875.125 383.679688 875.148438 382.730469 C 875.625 361.023438 874.699219 335.492188 863.171875 330.699219 Z M 871.707031 380.953125 L 697.730469 380.953125 C 699.796875 332.234375 716.429688 304.480469 744.660156 302.734375 C 747.953125 302.535156 777.3125 301.628906 788.339844 332.316406 C 795.082031 351.171875 807.90625 360.542969 824.398438 358.632812 C 842.046875 356.644531 850.441406 329.074219 861.824219 333.910156 C 872.136719 338.195312 871.953125 368.621094 871.707031 380.953125 Z M 871.707031 380.953125 " fill-opacity="1" fill-rule="nonzero"/><path fill="#f4eada" d="M 821.128906 326.234375 C 821.164062 326.234375 821.203125 326.234375 821.234375 326.234375 C 828.242188 326.214844 833.179688 320.574219 833.238281 314.316406 C 833.300781 307.507812 827.8125 302.210938 821.441406 302.210938 C 814.261719 302.433594 809.472656 307.835938 809.472656 314.167969 C 809.359375 320.707031 814.601562 326.234375 821.128906 326.234375 Z M 821.128906 326.234375 " fill-opacity="1" fill-rule="nonzero"/><path fill="#f4eada" d="M 726.398438 142.414062 C 715.671875 142.273438 706.742188 151.058594 706.742188 162.097656 C 706.542969 173.070312 715.363281 181.9375 725.910156 181.9375 C 726.027344 181.941406 726.136719 181.941406 726.25 181.9375 C 736.953125 181.9375 745.710938 173.171875 745.8125 162.324219 C 745.910156 151.445312 737.214844 142.414062 726.398438 142.414062 Z M 726.21875 178.457031 C 726.171875 178.457031 726.125 178.457031 726.078125 178.457031 C 726.03125 178.457031 725.988281 178.457031 725.941406 178.457031 C 717.472656 178.457031 710.054688 171.363281 710.21875 162.128906 C 710.21875 153.15625 717.359375 145.886719 726.082031 145.886719 C 735.554688 145.933594 742.410156 153.460938 742.335938 162.289062 C 742.253906 171.234375 735.050781 178.457031 726.21875 178.457031 Z M 726.21875 178.457031 " fill-opacity="1" fill-rule="nonzero"/><path fill="#f4eada" d="M 794.882812 149.402344 L 794.882812 201.238281 C 794.882812 202.199219 795.660156 202.976562 796.621094 202.976562 C 797.582031 202.976562 798.359375 202.199219 798.359375 201.238281 L 798.359375 149.402344 C 798.359375 148.441406 797.582031 147.664062 796.621094 147.664062 C 795.660156 147.664062 794.882812 148.441406 794.882812 149.402344 Z M 794.882812 149.402344 " fill-opacity="1" fill-rule="nonzero"/><path fill="#f4eada" d="M 769.296875 524.84375 L 749.730469 544.410156 L 749.101562 506.5 C 749.078125 504.972656 747.226562 504.210938 746.132812 505.296875 L 690.765625 560.667969 C 689.679688 561.75 690.433594 563.613281 691.964844 563.636719 L 729.875 564.261719 L 713.925781 580.210938 C 712.835938 581.304688 713.613281 583.160156 715.128906 583.179688 L 771.332031 584.015625 C 771.34375 584.015625 771.351562 584.015625 771.359375 584.015625 C 772.328125 584.015625 773.113281 583.226562 773.097656 582.25 L 772.261719 526.046875 C 772.242188 524.535156 770.386719 523.746094 769.296875 524.84375 Z M 719.292969 579.765625 C 720.582031 578.472656 769.566406 529.492188 768.847656 530.210938 L 769.59375 580.511719 Z M 719.292969 579.765625 " fill-opacity="1" fill-rule="nonzero"/></svg>